<svg xmlns="http://www.w3.org/2000/svg" viewBox="0 0 512 512"><path d="M344.789 168.303c-4.142 0-7.5 3.357-7.5 7.5v11.559c0 4.143 3.358 7.5 7.5 7.5 4.142 0 7.5-3.357 7.5-7.5v-11.559C352.289 171.66 348.931 168.303 344.789 168.303z"/><path d="M322.182 201.43h-1.115v-7.779c0-4.143-3.358-7.5-7.5-7.5 -4.142 0-7.5 3.357-7.5 7.5v12.279c0 5.79 4.71 10.5 10.5 10.5h5.615c4.143 0 7.5-3.358 7.5-7.5C329.682 204.787 326.324 201.43 322.182 201.43z"/><path d="M351.361 218.5c-4.142 0-7.5 3.357-7.5 7.5 0 5.881-4.744 10.666-10.575 10.666 -4.142 0-7.5 3.357-7.5 7.5s3.358 7.5 7.5 7.5c14.102 0 25.575-11.514 25.575-25.666C358.861 221.857 355.503 218.5 351.361 218.5z"/><path d="M156.024 163.447c-4.142 0-7.5 3.357-7.5 7.5v11.561c0 4.142 3.358 7.5 7.5 7.5 4.142 0 7.5-3.357 7.5-7.5v-11.561C163.524 166.804 160.166 163.447 156.024 163.447z"/><path d="M216.824 163.447c-4.142 0-7.5 3.357-7.5 7.5v11.561c0 4.142 3.358 7.5 7.5 7.5 4.142 0 7.5-3.357 7.5-7.5v-11.561C224.324 166.804 220.966 163.447 216.824 163.447z"/><path d="M187.245 174.239c-4.142 0-7.5 3.357-7.5 7.5v22.992h-7.289c-4.142 0-7.5 3.357-7.5 7.5 0 4.143 3.358 7.5 7.5 7.5h11.789c5.79 0 10.5-4.71 10.5-10.5v-27.492C194.745 177.596 191.387 174.239 187.245 174.239z"/><path d="M167.526 233.5c-5.831 0-10.576-4.785-10.576-10.668 0-4.143-3.358-7.5-7.5-7.5 -4.142 0-7.5 3.357-7.5 7.5 0 14.153 11.474 25.668 25.576 25.668 4.142 0 7.5-3.357 7.5-7.5S171.668 233.5 167.526 233.5z"/><path d="M488.9 468.653l-9.419-27.149c-1.922-5.537-6.391-9.661-11.809-11.262l-45.624-137.513 4.798-2.69c4.748-2.661 8.194-8.544 8.194-13.987V169.153v-7.99 -7.56c0-21.363-6.432-41.87-18.599-59.304 -10.38-14.872-24.255-26.602-40.439-34.266 0 0-1.341-0.624-2.159-0.989 -13.229-5.908-27.288-8.904-41.785-8.904 -29.02 0-55.267 12.13-74.004 31.601 -2.82-3.61-5.906-7.068-9.251-10.334 -18.6-18.158-43.08-28.572-67.163-28.572h-7.61c-50.289 0-91.201 41.101-91.201 91.62 0 1.194 0 23.707 0 23.707 -18.383 0.802-33.094 16.061-33.094 34.709 0 19.162 15.527 34.752 34.613 34.752 0.413 0 0.819-0.025 1.228-0.039 1.622 6.352 3.948 12.42 6.862 18.138 -7.659 3.764-13.838 10.453-16.431 18.591L23.509 429.182c-5.615 1.556-10.229 5.824-12.145 11.572L2.03 468.779c-3.553 10.669-2.144 21.601 3.867 29.993C11.916 507.179 21.807 512 33.033 512h425.184c11.27 0 21.158-4.846 27.127-13.293C491.305 490.272 492.601 479.318 488.9 468.653zM64.737 192.871c0-10.372 7.988-18.885 18.094-19.671v32.427c0 2.333 0.092 4.645 0.27 6.933C72.868 211.904 64.737 203.338 64.737 192.871zM389.513 221.5c-4.142 0-7.5 3.357-7.5 7.5v16.596c-1.451 0.094-2.891 0.29-4.299 0.599l-88.002 19.304c-18.645-13.313-30.844-35.178-30.844-59.871v-34.713c5.959 1.194 12.046 1.836 18.237 1.919 -0.394 0.911-0.614 1.915-0.614 2.971v11.559c0 4.143 3.358 7.5 7.5 7.5 4.142 0 7.5-3.357 7.5-7.5v-11.559c0-1.338-0.354-2.591-0.968-3.678 26.483-3.21 49.813-16.853 65.788-36.706 5.978 11.662 14.871 21.576 25.702 28.774V193c0 4.143 3.358 7.5 7.5 7.5 4.142 0 7.5-3.357 7.5-7.5v-21.099c7.219 2.737 14.959 4.392 23.028 4.773v99.267c-0.074 0.314-0.389 0.85-0.625 1.067l-22.403 12.563V229C397.013 224.857 393.655 221.5 389.513 221.5zM269.501 267.932c-1.413 0.044-2.837 0.067-4.261 0.067 -6.078 0-11.74-0.403-15.945-1.135l-12.942-2.253c6.147-6.882 11.237-14.733 15.014-23.297C255.765 251.288 261.945 260.297 269.501 267.932zM378.343 78.417c10.09 6.273 18.865 14.534 25.798 24.468 10.401 14.903 15.899 32.441 15.899 50.719v8.061c-25.002-1.479-45.963-18.254-53.79-41.122C373.159 107.896 377.435 93.606 378.343 78.417zM263.827 155.561l0.451-11.471 4.629 1.221c0.642 0.17 1.318 0.233 1.944 0.248 4.137-0.007 7.488-3.362 7.488-7.5 0-0.195-0.007-0.389-0.022-0.58 -0.106-14.693-4.224-29.459-11.715-42.879 16.117-18.063 39.481-29.459 65.457-29.459 10.849 0 21.411 1.966 31.459 5.848 0.01 0.46 0.014 0.906 0.014 1.342 0 47.159-38.158 85.526-85.061 85.526 -5.004 0-9.928-0.438-14.758-1.288C263.772 156.236 263.814 155.901 263.827 155.561zM174.032 57.835h7.61c39.35 0 75.465 32.399 80.957 70.301l-3.537-0.933c-2.202-0.578-4.544-0.13-6.372 1.223 -1.829 1.353-2.945 3.462-3.034 5.735l-0.39 9.932 -38.717-16.535c-0.942-0.402-1.945-0.603-2.946-0.603 -1.163 0-2.324 0.271-3.386 0.808 -1.977 1-3.41 2.823-3.916 4.979l-1.713 7.307 -28.254-15.213c-2.159-1.164-4.75-1.196-6.938-0.091 -2.189 1.106-3.698 3.212-4.043 5.639l-1.33 9.354 -33.597-12.324c-0.828-0.304-1.702-0.459-2.583-0.459h-23.65C101.952 88.212 134.531 57.835 174.032 57.835zM97.831 149.476c0-2.539 0.133-5.048 0.385-7.521h8.32V174.2h-8.705V149.476zM97.831 189.2h16.205c4.142 0 7.5-3.357 7.5-7.5v-39.369l40.025 14.683c2.126 0.781 4.491 0.558 6.433-0.605 1.943-1.162 3.257-3.14 3.576-5.381l1.121-7.888 27.408 14.758c2.055 1.107 4.508 1.192 6.636 0.234 2.128-0.958 3.689-2.854 4.221-5.126l1.911-8.148 31 13.239v47.529c0 22.33-9.975 42.35-25.669 55.824L111.3 242.846c-1.165-0.203-2.356-0.309-3.551-0.367 -6.292-10.838-9.918-23.422-9.918-36.852V189.2zM473.095 490.05c-3.121 4.417-8.544 6.95-14.878 6.95H33.033c-6.327 0-11.773-2.537-14.942-6.962 -3.18-4.44-3.848-10.462-1.83-16.519l9.333-28.023c0.391-1.171 1.464-1.957 2.672-1.957 0.063 0 0.126 0.003 0.18 0.007 1.273 0.08 2.34 1.027 2.594 2.307 0.844 4.232 4.494 8.754 12.209 8.754h115.754c4.142 0 7.5-3.357 7.5-7.5s-3.358-7.5-7.5-7.5H44.751c-1.319-3.208-3.537-5.919-6.317-7.858l27.957-87.793v0.314c0 4.143 3.358 7.5 7.5 7.5 4.142 0 7.5-3.357 7.5-7.5v-1.659c0-4.143-3.358-7.5-7.5-7.5 -2.137 0-4.06 0.897-5.426 2.332l21.838-68.578c2.079-6.525 8.96-11.447 16.006-11.447 0.819 0 1.633 0.069 2.419 0.206l166.064 29.61c3.374 0.616 6.223 2.486 8.022 5.267 1.819 2.81 2.362 6.226 1.527 9.617l-4.202 17.092c-0.989 4.022 1.47 8.085 5.493 9.074 0.602 0.147 1.204 0.219 1.796 0.219 3.372 0 6.436-2.29 7.277-5.711l4.202-17.092c1.832-7.45 0.588-15.032-3.502-21.351 -0.948-1.464-2.024-2.811-3.206-4.04l88.727-19.462c0.356-0.078 0.721-0.127 1.086-0.177v36.705c0 3.983 1.865 7.454 4.99 9.284 1.509 0.884 3.208 1.325 4.954 1.324 1.868 0 3.789-0.505 5.586-1.512l11.182-6.271 43.915 132.361c-2.573 1.745-4.674 4.156-6.052 7.044H265.982l19.379-78.815c0.989-4.022-1.47-8.085-5.492-9.074 -4.026-0.987-8.085 1.47-9.074 5.492l-20.26 82.397h-53.532c-4.142 0-7.5 3.357-7.5 7.5s3.358 7.5 7.5 7.5H447.99c7.28 0 10.933-4.111 11.922-7.955 0.318-1.232 1.37-2.095 2.569-2.145l0.168-0.003c1.193 0 2.262 0.771 2.66 1.918l9.418 27.148C476.825 479.608 476.229 485.615 473.095 490.05z"/><path d="M180.052 298.497c-4.142 0-7.5 3.357-7.5 7.5v1.66c0 4.143 3.358 7.5 7.5 7.5 4.142 0 7.5-3.357 7.5-7.5v-1.66C187.552 301.854 184.194 298.497 180.052 298.497z"/><path d="M112.399 275.054c-4.142 0-7.5 3.357-7.5 7.5v1.655c0 4.143 3.358 7.5 7.5 7.5 4.142 0 7.5-3.357 7.5-7.5v-1.655C119.899 278.411 116.541 275.054 112.399 275.054z"/><path d="M248.744 301.201c-4.142 0-7.5 3.357-7.5 7.5v1.659c0 4.143 3.358 7.5 7.5 7.5 4.142 0 7.5-3.358 7.5-7.5v-1.659C256.244 304.558 252.886 301.201 248.744 301.201z"/><path d="M211.275 345.571c-4.142 0-7.5 3.357-7.5 7.5v1.659c0 4.143 3.358 7.5 7.5 7.5 4.142 0 7.5-3.358 7.5-7.5v-1.659C218.775 348.928 215.417 345.571 211.275 345.571z"/><path d="M92.625 395.344c-4.142 0-7.5 3.357-7.5 7.5v1.659c0 4.143 3.358 7.5 7.5 7.5 4.142 0 7.5-3.357 7.5-7.5v-1.659C100.125 398.701 96.767 395.344 92.625 395.344z"/><path d="M236.254 401.621c-4.142 0-7.5 3.357-7.5 7.5v1.66c0 4.143 3.358 7.5 7.5 7.5 4.142 0 7.5-3.358 7.5-7.5v-1.66C243.754 404.978 240.396 401.621 236.254 401.621z"/><path d="M132.175 345.135c-4.142 0-7.5 3.357-7.5 7.5v1.659c0 4.143 3.358 7.5 7.5 7.5 4.142 0 7.5-3.357 7.5-7.5v-1.659C139.675 348.492 136.317 345.135 132.175 345.135z"/><path d="M161.317 399.964c-4.142 0-7.5 3.357-7.5 7.5v1.657c0 4.143 3.358 7.5 7.5 7.5 4.142 0 7.5-3.357 7.5-7.5v-1.657C168.817 403.321 165.459 399.964 161.317 399.964z"/><path d="M323.681 312.097c-4.142 0-7.5 3.357-7.5 7.5v1.658c0 4.142 3.357 7.5 7.5 7.5 4.142 0 7.5-3.357 7.5-7.5v-1.658C331.181 315.454 327.823 312.097 323.681 312.097z"/><path d="M390.29 339.293c-4.142 0-7.5 3.357-7.5 7.5v1.657c0 4.143 3.358 7.5 7.5 7.5 4.142 0 7.5-3.357 7.5-7.5v-1.657C397.79 342.65 394.432 339.293 390.29 339.293z"/><path d="M345.536 373.379c-4.142 0-7.5 3.357-7.5 7.5v1.657c0 4.143 3.358 7.5 7.5 7.5 4.142 0 7.5-3.357 7.5-7.5v-1.657C353.036 376.736 349.678 373.379 345.536 373.379z"/><path d="M407.985 411.472c-4.142 0-7.5 3.357-7.5 7.5v1.655c0 4.143 3.358 7.5 7.5 7.5 4.142 0 7.5-3.358 7.5-7.5v-1.655C415.485 414.829 412.127 411.472 407.985 411.472z"/><path d="M299.743 418.792c-4.142 0-7.5 3.357-7.5 7.5v1.659c0 4.143 3.358 7.5 7.5 7.5 4.142 0 7.5-3.357 7.5-7.5v-1.659C307.243 422.149 303.885 418.792 299.743 418.792z"/><path d="M482.032 234.465h-12.567c-4.142 0-7.5 3.357-7.5 7.5s3.358 7.5 7.5 7.5h12.567c8.196 0 14.863 6.737 14.863 15.018s-6.667 15.019-14.863 15.019h-13.608 -6.068 -4.095c-9.741 0-17.666 8.058-17.666 17.961v17.216c0 4.143 3.358 7.5 7.5 7.5 4.142 0 7.5-3.357 7.5-7.5v-17.216c0-1.605 1.221-2.961 2.666-2.961h4.095 6.068 13.608c16.467 0 29.863-13.466 29.863-30.019C511.895 247.931 498.499 234.465 482.032 234.465z"/><path d="M82.573 0H33.238c-4.142 0-7.5 3.357-7.5 7.5s3.358 7.5 7.5 7.5h49.335c7.332 0 13.297 6.031 13.297 13.444 0 7.413-5.965 13.444-13.297 13.444H33.414c-15.604 0-28.299 12.76-28.299 28.444 0 15.685 12.695 28.444 28.299 28.444h17.017c4.142 0 7.5-3.357 7.5-7.5s-3.358-7.5-7.5-7.5H33.414c-7.333 0-13.299-6.03-13.299-13.443 0-7.413 5.966-13.444 13.299-13.444h49.159c15.603 0 28.297-12.76 28.297-28.444C110.87 12.76 98.176 0 82.573 0z"/></svg>